<svg width="174" height="22" viewBox="0 0 174 22" fill="none" xmlns="http://www.w3.org/2000/svg">
<path d="M4.346 15.624L0.422 11.592L4.346 7.56H7.514L3.59 11.592L7.514 15.624H4.346ZM17.5037 0.954L12.6437 21.258H10.1777L15.0377 0.954H17.5037ZM19.8676 7.56H23.0536L26.9776 11.592L23.0536 15.624H19.8676L23.8096 11.592L19.8676 7.56ZM171.76 18.126C171.304 18.126 170.926 17.988 170.626 17.712C170.338 17.424 170.194 17.07 170.194 16.65C170.194 16.23 170.338 15.882 170.626 15.606C170.926 15.318 171.304 15.174 171.76 15.174C172.204 15.174 172.57 15.318 172.858 15.606C173.146 15.882 173.29 16.23 173.29 16.65C173.29 17.07 173.146 17.424 172.858 17.712C172.57 17.988 172.204 18.126 171.76 18.126Z" fill="#5EABFF"/>
<path d="M34.0588 18H42.1958V16.0121H36.4302V4.90909H34.0588V18ZM50.4096 13.8707C50.4096 15.3665 49.3422 16.108 48.3194 16.108C47.2072 16.108 46.4657 15.3217 46.4657 14.0753V8.18182H44.1518V14.4332C44.1518 16.7919 45.4941 18.1278 47.4245 18.1278C48.8947 18.1278 49.9302 17.3544 50.3777 16.255H50.4799V18H52.7235V8.18182H50.4096V13.8707ZM59.3857 18.1918C61.853 18.1918 63.4254 16.728 63.5916 14.6442H61.38C61.1818 15.6989 60.4212 16.3061 59.4048 16.3061C57.9602 16.3061 57.027 15.098 57.027 13.0909C57.027 11.1094 57.9794 9.92045 59.4048 9.92045C60.517 9.92045 61.201 10.6364 61.38 11.5824H63.5916C63.4318 9.45384 61.7699 8.05398 59.3729 8.05398C56.4964 8.05398 54.6811 10.1314 54.6811 13.1293C54.6811 16.1016 56.4517 18.1918 59.3857 18.1918ZM68.3169 18.1982C69.8574 18.1982 70.7779 17.4759 71.1998 16.6513H71.2765V18H73.5009V11.429C73.5009 8.83381 71.3851 8.05398 69.5123 8.05398C67.4476 8.05398 65.8624 8.97443 65.351 10.7642L67.5115 11.071C67.7417 10.3999 68.3936 9.82457 69.525 9.82457C70.5989 9.82457 71.187 10.3743 71.187 11.3395V11.3778C71.187 12.0426 70.4902 12.0746 68.758 12.2599C66.8532 12.4645 65.0314 13.0334 65.0314 15.245C65.0314 17.1754 66.4441 18.1982 68.3169 18.1982ZM68.9178 16.4979C67.9526 16.4979 67.2623 16.0568 67.2623 15.2067C67.2623 14.3182 68.0357 13.9474 69.0712 13.8004C69.6784 13.7173 70.8929 13.5639 71.1934 13.321V14.478C71.1934 15.571 70.3113 16.4979 68.9178 16.4979ZM83.5875 10.777C83.2679 9.11506 81.9384 8.05398 79.6373 8.05398C77.2722 8.05398 75.6614 9.21733 75.6678 11.0327C75.6614 12.4645 76.5435 13.4105 78.4292 13.8004L80.1039 14.152C81.0051 14.3501 81.427 14.7145 81.427 15.2706C81.427 15.9418 80.6983 16.4467 79.5989 16.4467C78.5378 16.4467 77.8475 15.9865 77.6493 15.1044L75.3929 15.3217C75.6806 17.1243 77.1955 18.1918 79.6053 18.1918C82.0598 18.1918 83.7921 16.9197 83.7985 15.0597C83.7921 13.6598 82.8908 12.8033 81.0371 12.4006L79.3624 12.0426C78.3652 11.8189 77.9689 11.4737 77.9753 10.9048C77.9689 10.2401 78.704 9.77983 79.6692 9.77983C80.7367 9.77983 81.2992 10.3615 81.4782 11.0071L83.5875 10.777ZM91.9547 18L93.035 14.772H97.9569L99.0435 18H101.575L96.9597 4.90909H94.0321L89.4235 18H91.9547ZM93.6742 12.8672L95.4448 7.59375H95.5471L97.3176 12.8672H93.6742ZM104.622 18.1406C105.376 18.1406 106.022 17.5142 106.028 16.7344C106.022 15.9673 105.376 15.3409 104.622 15.3409C103.842 15.3409 103.21 15.9673 103.216 16.7344C103.21 17.5142 103.842 18.1406 104.622 18.1406ZM123.786 9.32599C123.383 6.41761 121.146 4.73011 118.244 4.73011C114.824 4.73011 112.248 7.22301 112.248 11.4545C112.248 15.6797 114.792 18.179 118.244 18.179C121.357 18.179 123.421 16.1655 123.786 13.6662L121.395 13.6534C121.094 15.1875 119.842 16.0504 118.276 16.0504C116.153 16.0504 114.632 14.4588 114.632 11.4545C114.632 8.50142 116.141 6.85866 118.282 6.85866C119.874 6.85866 121.12 7.75994 121.395 9.32599H123.786ZM128.68 18.1982C130.221 18.1982 131.141 17.4759 131.563 16.6513H131.64V18H133.864V11.429C133.864 8.83381 131.748 8.05398 129.876 8.05398C127.811 8.05398 126.226 8.97443 125.714 10.7642L127.875 11.071C128.105 10.3999 128.757 9.82457 129.888 9.82457C130.962 9.82457 131.55 10.3743 131.55 11.3395V11.3778C131.55 12.0426 130.854 12.0746 129.121 12.2599C127.216 12.4645 125.395 13.0334 125.395 15.245C125.395 17.1754 126.807 18.1982 128.68 18.1982ZM129.281 16.4979C128.316 16.4979 127.626 16.0568 127.626 15.2067C127.626 14.3182 128.399 13.9474 129.434 13.8004C130.042 13.7173 131.256 13.5639 131.557 13.321V14.478C131.557 15.571 130.675 16.4979 129.281 16.4979ZM143.951 10.777C143.631 9.11506 142.302 8.05398 140.001 8.05398C137.635 8.05398 136.025 9.21733 136.031 11.0327C136.025 12.4645 136.907 13.4105 138.792 13.8004L140.467 14.152C141.368 14.3501 141.79 14.7145 141.79 15.2706C141.79 15.9418 141.062 16.4467 139.962 16.4467C138.901 16.4467 138.211 15.9865 138.013 15.1044L135.756 15.3217C136.044 17.1243 137.559 18.1918 139.969 18.1918C142.423 18.1918 144.155 16.9197 144.162 15.0597C144.155 13.6598 143.254 12.8033 141.4 12.4006L139.726 12.0426C138.729 11.8189 138.332 11.4737 138.339 10.9048C138.332 10.2401 139.067 9.77983 140.032 9.77983C141.1 9.77983 141.662 10.3615 141.841 11.0071L143.951 10.777ZM150.972 8.18182H149.036V5.82955H146.722V8.18182H145.328V9.97159H146.722V15.4304C146.709 17.2777 148.051 18.1854 149.79 18.1342C150.448 18.1151 150.902 17.9872 151.151 17.9041L150.762 16.0952C150.634 16.1271 150.372 16.1847 150.084 16.1847C149.502 16.1847 149.036 15.9801 149.036 15.0469V9.97159H150.972V8.18182ZM152.908 18H155.222V12.228C155.222 10.9815 156.161 10.0994 157.433 10.0994C157.823 10.0994 158.309 10.1697 158.507 10.2337V8.10511C158.296 8.06676 157.932 8.04119 157.676 8.04119C156.551 8.04119 155.612 8.6804 155.254 9.81818H155.151V8.18182H152.908V18ZM163.923 18.1918C166.799 18.1918 168.627 16.1655 168.627 13.1293C168.627 10.0866 166.799 8.05398 163.923 8.05398C161.046 8.05398 159.218 10.0866 159.218 13.1293C159.218 16.1655 161.046 18.1918 163.923 18.1918ZM163.936 16.3381C162.344 16.3381 161.564 14.919 161.564 13.1229C161.564 11.3267 162.344 9.88849 163.936 9.88849C165.502 9.88849 166.281 11.3267 166.281 13.1229C166.281 14.919 165.502 16.3381 163.936 16.3381Z" fill="white"/>
</svg>
